<?xml version="1.0" standalone="no"?>
<!DOCTYPE svg PUBLIC "-//W3C//DTD SVG 20010904//EN"
 "http://www.w3.org/TR/2001/REC-SVG-20010904/DTD/svg10.dtd">
<svg version="1.0" xmlns="http://www.w3.org/2000/svg"
 width="421.000000pt" height="432.000000pt" viewBox="0 0 421.000000 432.000000"
 preserveAspectRatio="xMidYMid meet">

<g transform="translate(0.000000,432.000000) scale(0.100000,-0.100000)"
fill="#000000" stroke="none">
<path d="M3098 3003 l-527 -528 39 -44 c66 -72 120 -205 120 -293 l0 -38 741
0 741 0 -4 38 c-4 35 -567 1392 -578 1392 -3 0 -242 -237 -532 -527z"/>
<path d="M168 2081 c56 -145 578 -1411 582 -1411 3 0 245 240 538 533 l533
533 -43 64 c-51 76 -78 151 -85 238 l-6 62 -763 0 c-739 0 -763 -1 -756 -19z"/>
</g>
</svg>
